<?xml version="1.0" encoding="UTF-8" standalone="no"?>
<!-- Created with Inkscape (http://www.inkscape.org/) -->

<svg
   width="512"
   height="512"
   viewBox="0 0 135.46666 135.46667"
   version="1.1"
   id="svg1"
   inkscape:export-filename="bitmap.png.svg"
   inkscape:export-xdpi="96"
   inkscape:export-ydpi="96"
   sodipodi:docname="favicon.svg"
   inkscape:version="1.5-dev (fac61fb9, 2025-01-15)"
   xmlns:inkscape="http://www.inkscape.org/namespaces/inkscape"
   xmlns:sodipodi="http://sodipodi.sourceforge.net/DTD/sodipodi-0.dtd"
   xmlns="http://www.w3.org/2000/svg"
   xmlns:svg="http://www.w3.org/2000/svg">
  <sodipodi:namedview
     id="namedview1"
     pagecolor="#ffffff"
     bordercolor="#000000"
     borderopacity="0.25"
     inkscape:showpageshadow="2"
     inkscape:pageopacity="0.0"
     inkscape:pagecheckerboard="0"
     inkscape:deskcolor="#d1d1d1"
     inkscape:document-units="px"
     showgrid="false"
     inkscape:zoom="1.03"
     inkscape:cx="159.70874"
     inkscape:cy="258.25243"
     inkscape:window-width="1470"
     inkscape:window-height="793"
     inkscape:window-maximized="1"
     inkscape:current-layer="layer1"
     inkscape:export-bgcolor="#ffffff00">
    <inkscape:page
       x="0"
       y="0"
       width="135.46666"
       height="135.46667"
       id="page2"
       margin="0"
       bleed="0" />
  </sodipodi:namedview>
  <defs
     id="defs1">
    <inkscape:path-effect
       effect="fillet_chamfer"
       id="path-effect7"
       is_visible="true"
       lpeversion="1"
       nodesatellites_param="F,0,1,1,0,16.998154,0,1 @ F,0,1,1,0,16.998154,0,1 @ F,0,0,1,0,16.998154,0,1 @ F,0,1,1,0,16.998154,0,1"
       radius="0"
       unit="px"
       method="auto"
       mode="F"
       chamfer_steps="1"
       flexible="false"
       use_knot_distance="true"
       apply_no_radius="true"
       apply_with_radius="true"
       only_selected="false"
       hide_knots="false" />
  </defs>
  <g
     inkscape:label="Layer 1"
     inkscape:groupmode="layer"
     id="layer1">
    <path
       id="rect2"
       d="M 16.998157,2.7270507e-6 H 118.46851 A 16.998154,16.998154 45 0 1 135.46666,16.998157 V 118.46851 a 16.998154,16.998154 135 0 1 -16.99815,16.99815 H 16.998157 A 16.998154,16.998154 45 0 1 2.7270507e-6,118.46851 V 16.998157 A 16.998154,16.998154 135 0 1 16.998157,2.7270507e-6 Z"
       style="display:none;fill:#2d292d;fill-opacity:1;stroke-width:0.569111"
       inkscape:path-effect="#path-effect7"
       inkscape:original-d="M 2.7270507e-6,2.7270507e-6 H 135.46666 V 135.46666 H 2.7270507e-6 Z"
       inkscape:label="background" />
    <path
       style="font-weight:bold;font-size:70.5556px;font-family:CommitMono;-inkscape-font-specification:'CommitMono Bold';display:none;fill:#f4bbd3;stroke-width:0.264583"
       d="m 21.342997,42.686098 h -8.81945 V 92.07502 h 8.81945 V 77.187788 L 27.269668,70.061672 40.604677,92.07502 H 50.623572 L 33.055227,63.076667 49.918016,42.686098 H 39.334676 L 21.342997,64.417223 Z M 59.090272,92.07502 h 8.81945 V 70.696672 H 84.137511 V 92.07502 h 8.81945 V 42.686098 h -8.81945 v 19.89668 H 67.909722 v -19.89668 h -8.81945 z m 50.447288,-5.997226 c 0,3.739447 2.96333,6.702782 6.70278,6.702782 3.73944,0 6.70278,-2.963335 6.70278,-6.702782 0,-3.739447 -2.96334,-6.702783 -6.70278,-6.702783 -3.73945,0 -6.70278,2.963336 -6.70278,6.702783 z"
       id="text1"
       aria-label="KH." />
    <path
       d="M 76.905597,56.532642 V 25.135399 H 58.56114 V 56.532642 L 28.575009,46.831247 22.930561,64.293759 52.916692,73.995154 34.395846,99.57156 49.212523,110.33129 67.733369,84.931272 86.254215,110.33129 101.07089,99.57156 82.550046,73.995154 112.53618,64.293759 106.89173,46.831247 Z"
       id="text2"
       style="font-weight:bold;font-size:176.389px;font-family:CommitMono;-inkscape-font-specification:'CommitMono Bold';fill:#f4bbd3;stroke-width:0.264583"
       aria-label="*" />
  </g>
</svg>
